<svg width="1.94" height="18" viewBox="0 0 5 20" fill="none" xmlns="http://www.w3.org/2000/svg">
<path d="M2.5 3C1.96497 3 1.53125 2.55228 1.53125 2C1.53125 1.44772 1.96497 1 2.5 1C3.03503 1 3.46875 1.44772 3.46875 2C3.46875 2.55228 3.03503 3 2.5 3Z" stroke="white" stroke-width="1.5" stroke-linecap="round" stroke-linejoin="round"/>
<path d="M2.5 11C1.96497 11 1.53125 10.5523 1.53125 10C1.53125 9.44772 1.96497 9 2.5 9C3.03503 9 3.46875 9.44772 3.46875 10C3.46875 10.5523 3.03503 11 2.5 11Z" stroke="white" stroke-width="1.5" stroke-linecap="round" stroke-linejoin="round"/>
<path d="M2.5 19C1.96497 19 1.53125 18.5523 1.53125 18C1.53125 17.4477 1.96497 17 2.5 17C3.03503 17 3.46875 17.4477 3.46875 18C3.46875 18.5523 3.03503 19 2.5 19Z" stroke="white" stroke-width="1.5" stroke-linecap="round" stroke-linejoin="round"/>
</svg>
